<?xml version="1.0" encoding="UTF-8"?>
<!DOCTYPE svg PUBLIC "-//W3C//DTD SVG 1.1//EN" "http://www.w3.org/Graphics/SVG/1.1/DTD/svg11.dtd">
<svg xmlns="http://www.w3.org/2000/svg" xmlns:xlink="http://www.w3.org/1999/xlink" version="1.1" width="581px" height="366px" viewBox="-0.5 -0.5 581 366" style="background-color: rgb(255, 255, 255);"><defs/><g><rect x="0" y="0" width="580" height="365" fill="none" stroke="none" pointer-events="all"/><rect x="60" y="50" width="60" height="60" rx="9" ry="9" fill="#2c2e39" stroke="#666666" pointer-events="all"/><path d="M 60 130 L 40 130 Q 30 130 30 120 L 30 40 Q 30 30 40 30 L 60 30" fill="none" stroke="#021663" stroke-width="4" stroke-miterlimit="10" pointer-events="stroke"/><path d="M 520 130 L 540 130 Q 550 130 550 120 L 550 40 Q 550 30 540 30 L 520 30" fill="none" stroke="#021663" stroke-width="4" stroke-miterlimit="10" pointer-events="stroke"/><rect x="140" y="50" width="60" height="60" rx="9" ry="9" fill="#fb6276" stroke="#666666" pointer-events="all"/><rect x="220" y="50" width="60" height="60" rx="9" ry="9" fill="#9196a3" stroke="#666666" pointer-events="all"/><rect x="300" y="50" width="60" height="60" rx="9" ry="9" fill="#fb6276" stroke="#666666" pointer-events="all"/><rect x="380" y="50" width="60" height="60" rx="9" ry="9" fill="#021663" stroke="#666666" pointer-events="all"/><rect x="460" y="47.5" width="60" height="60" rx="9" ry="9" fill="#9196a3" stroke="#666666" pointer-events="all"/><path d="M 60 340 L 40 340 Q 30 340 30 330 L 30 250 Q 30 240 40 240 L 60 240" fill="none" stroke="#021663" stroke-width="4" stroke-miterlimit="10" pointer-events="stroke"/><path d="M 360 340 L 380 340 Q 390 340 390 330 L 390 250 Q 390 240 380 240 L 360 240" fill="none" stroke="#021663" stroke-width="4" stroke-miterlimit="10" pointer-events="stroke"/><rect x="60" y="260" width="60" height="60" rx="9" ry="9" fill="#2c2e39" stroke="#666666" pointer-events="all"/><path d="M 170 148.24 L 170 160 Q 170 170 180 170 L 320 170 Q 330 170 330 164.12 L 330 158.24" fill="none" stroke="#fb6276" stroke-width="2" stroke-miterlimit="10" pointer-events="stroke"/><path d="M 170 142.24 L 174 150.24 L 170 148.24 L 166 150.24 Z" fill="#fb6276" stroke="#fb6276" stroke-width="2" stroke-miterlimit="10" pointer-events="all"/><path d="M 330 152.24 L 334 160.24 L 330 158.24 L 326 160.24 Z" fill="#fb6276" stroke="#fb6276" stroke-width="2" stroke-miterlimit="10" pointer-events="all"/><path d="M 250 128.24 L 250 170 Q 250 180 260 180 L 480 180 Q 490 180 490 170 L 490 158.24" fill="none" stroke="#9196a3" stroke-width="2" stroke-miterlimit="10" pointer-events="stroke"/><path d="M 250 122.24 L 254 130.24 L 250 128.24 L 246 130.24 Z" fill="#9196a3" stroke="#9196a3" stroke-width="2" stroke-miterlimit="10" pointer-events="all"/><path d="M 490 152.24 L 494 160.24 L 490 158.24 L 486 160.24 Z" fill="#9196a3" stroke="#9196a3" stroke-width="2" stroke-miterlimit="10" pointer-events="all"/><rect x="140" y="260" width="60" height="60" rx="9" ry="9" fill="#fb6276" stroke="#666666" pointer-events="all"/><rect x="220" y="260" width="60" height="60" rx="9" ry="9" fill="#9196a3" stroke="#666666" pointer-events="all"/><rect x="300" y="260" width="60" height="60" rx="9" ry="9" fill="#021663" stroke="#666666" pointer-events="all"/><path d="M 480 130 C 480 124.48 484.48 120 490 120 C 495.52 120 500 124.48 500 130 C 500 135.52 495.52 140 490 140 C 484.48 140 480 135.52 480 130 Z M 495.79 133.94 C 497.69 131.16 497.34 127.42 494.96 125.04 C 492.58 122.66 488.84 122.31 486.06 124.21 Z M 484.23 126.06 C 482.34 128.84 482.68 132.57 485.05 134.95 C 487.43 137.33 491.16 137.69 493.94 135.8 Z" fill="#ff0000" stroke="none" pointer-events="all"/><path d="M 320 130 C 320 124.48 324.48 120 330 120 C 335.52 120 340 124.48 340 130 C 340 135.52 335.52 140 330 140 C 324.48 140 320 135.52 320 130 Z M 335.79 133.94 C 337.69 131.16 337.34 127.42 334.96 125.04 C 332.58 122.66 328.84 122.31 326.06 124.21 Z M 324.23 126.06 C 322.34 128.84 322.68 132.57 325.05 134.95 C 327.43 137.33 331.16 137.69 333.94 135.8 Z" fill="#ff0000" stroke="none" pointer-events="all"/></g></svg>