<svg width="107" height="32" viewBox="0 0 107 32" fill="none" xmlns="http://www.w3.org/2000/svg">
<path fill-rule="evenodd" clip-rule="evenodd" d="M37.9228 17.3484V18.4561H41.2011C41.1497 18.9778 40.8823 19.4701 40.4422 19.853C39.7772 20.4025 38.8562 20.6976 37.9076 20.6653C35.8958 20.6653 34.265 19.3429 34.265 17.7115C34.265 16.0802 35.8958 14.7576 37.9076 14.7576C38.8338 14.7465 39.728 15.0317 40.3967 15.5515L41.3604 14.7699C40.4468 14.0371 39.2077 13.6334 37.9228 13.6499C36.0856 13.592 34.3564 14.3538 33.4166 15.6352C32.4766 16.9167 32.4766 18.5125 33.4166 19.7939C34.3564 21.0754 36.0856 21.8371 37.9228 21.7792C39.2358 21.8217 40.5087 21.4075 41.4211 20.6407C42.218 19.9308 42.6427 18.9971 42.605 18.0376C42.6077 17.8067 42.5849 17.576 42.5367 17.3484H37.9228ZM46.331 16.5422C44.5456 16.5457 43.1017 17.7221 43.1058 19.1699C43.1101 20.6178 44.5608 21.7887 46.3462 21.7853C48.1316 21.7819 49.5755 20.6055 49.5714 19.1576C49.5839 18.4588 49.246 17.7858 48.6351 17.2927C48.0243 16.7997 47.1927 16.5288 46.331 16.5422ZM50.1784 19.1699C50.1743 17.7221 51.6182 16.5457 53.4036 16.5422C54.2653 16.5288 55.0969 16.7997 55.7078 17.2927C56.3186 17.7858 56.6565 18.4588 56.644 19.1576C56.6482 20.6055 55.2042 21.7819 53.4188 21.7853C51.6334 21.7887 50.1827 20.6178 50.1784 19.1699ZM51.5004 19.8459C51.847 20.4341 52.6017 20.7908 53.4036 20.7453C53.907 20.7358 54.3843 20.5619 54.7272 20.263C55.0701 19.964 55.2496 19.5654 55.2249 19.1576C55.2229 18.5058 54.7297 17.9211 53.9813 17.6832C53.2327 17.4454 52.3811 17.6028 51.8335 18.0802C51.2859 18.5574 51.1539 19.2577 51.5004 19.8459ZM44.4278 19.8459C44.7743 20.4341 45.529 20.7908 46.331 20.7453C46.8344 20.7358 47.3117 20.5619 47.6545 20.263C47.9975 19.964 48.1769 19.5654 48.1523 19.1576C48.1503 18.5058 47.6571 17.9211 46.9087 17.6832C46.1601 17.4454 45.3084 17.6028 44.7609 18.0802C44.2133 18.5574 44.0813 19.2577 44.4278 19.8459ZM69.5447 16.5422C70.8028 16.5798 71.9018 17.2433 72.307 18.2099L72.4663 18.4807L68.1484 19.9269C68.4173 20.4279 69.0384 20.7433 69.7116 20.7207C70.3604 20.7258 70.9639 20.4518 71.2977 20.0007L72.398 20.6161C71.6142 21.579 70.1422 22.0086 68.7815 21.6716C67.4207 21.3346 66.4959 20.3114 66.5092 19.1576C66.4568 18.4786 66.7533 17.8122 67.3283 17.3168C67.9034 16.8213 68.7057 16.541 69.5447 16.5422ZM67.9055 19.0838C67.8745 18.6976 68.0364 18.3176 68.3547 18.0294C68.6731 17.7411 69.1211 17.5689 69.5978 17.5515C70.0978 17.5267 70.5673 17.7474 70.7892 18.1115L67.9055 19.0838ZM65.8187 21.6192H64.3996V13.9269H65.8187V21.6192ZM62.0775 17.1269H62.0243C61.5954 16.7307 60.9746 16.506 60.3245 16.5115C58.602 16.5792 57.2483 17.7315 57.2483 19.1299C57.2483 20.5284 58.602 21.6807 60.3245 21.7484C60.9759 21.759 61.5991 21.5334 62.0243 21.133H62.0775V21.5084C62.0775 22.5115 61.4172 23.0469 60.3548 23.0469C59.629 23.0339 58.9846 22.6669 58.7233 22.1176L57.4939 22.5299C57.9592 23.4776 59.0971 24.0944 60.3548 24.0807C62.0167 24.0807 63.3903 23.2869 63.3903 21.3546V16.6961H62.0775V17.1269ZM58.6099 19.1607C58.6099 19.9992 59.4139 20.6931 60.4459 20.7453C60.9391 20.7299 61.4031 20.5516 61.7299 20.2517C62.0567 19.9518 62.2179 19.5565 62.1761 19.1576C62.2136 18.7603 62.0506 18.3676 61.7244 18.0694C61.3983 17.7713 60.9369 17.5933 60.4459 17.5761C59.4139 17.6283 58.6099 18.3222 58.6099 19.1607ZM78.9546 13.9269H75.5549V21.6192H76.974V18.7022H78.9546C80.0573 18.7665 81.1113 18.3259 81.6865 17.5607C82.2618 16.7955 82.2618 15.8337 81.6865 15.0685C81.1113 14.3032 80.0573 13.8627 78.9546 13.9269ZM76.974 17.6192H78.9546L78.985 17.6315C79.5655 17.6315 80.1013 17.3805 80.3912 16.973C80.6818 16.5656 80.6818 16.0635 80.3912 15.6561C80.1013 15.2486 79.5655 14.9976 78.985 14.9976H76.974V17.6192ZM87.7119 16.5176C86.6556 16.4648 85.6622 16.927 85.1849 17.693L86.437 18.1176C86.6958 17.7398 87.2035 17.5204 87.7347 17.5576C88.0989 17.5232 88.464 17.6087 88.7501 17.795C89.0354 17.9813 89.216 18.2528 89.2524 18.5484V18.6222C88.7963 18.4277 88.2879 18.3264 87.7726 18.3269C86.4219 18.3269 85.0407 18.9422 85.0407 20.0622C85.068 20.5432 85.3344 20.9948 85.7791 21.3137C86.2238 21.6326 86.8089 21.7917 87.4008 21.7546C88.1255 21.7871 88.8161 21.5002 89.2069 21.0038H89.2524V21.6192H90.6184V18.6592C90.6184 17.3115 89.3587 16.5299 87.7423 16.5299L87.7119 16.5176ZM86.4294 20.0807C86.4294 20.5422 87.0745 20.733 87.5374 20.733L87.5677 20.7453C88.4253 20.7315 89.1386 20.2057 89.2372 19.5146C88.8434 19.3363 88.3979 19.2471 87.9472 19.2561C87.2338 19.2561 86.4294 19.4653 86.4294 20.0807ZM95.5965 16.6961L93.9726 20.0315H93.927L92.2424 16.6961H90.7246L93.2516 21.3607L91.8098 23.9515H93.2896L97.175 16.6961H95.5965ZM84.2591 21.6192H82.8476V13.9269H84.2591V21.6192Z" fill="#91B1B8"/>
<path d="M9.6171 7.79772C9.36705 8.03747 9.23949 8.34565 9.26043 8.65925V22.2716C9.23463 22.5856 9.3628 22.8953 9.6171 23.1331L9.67022 23.1823L19.0726 15.5577V15.3731L9.67022 7.75464L9.6171 7.79772Z" fill="url(#paint0_linear_301_2)"/>
<path d="M22.1838 18.0992L19.0724 15.5577V15.3731L22.1838 12.8315L22.2521 12.8685L25.9781 14.5792C27.0405 15.0654 27.0405 15.8654 25.9781 16.3577L22.2672 18.0685L22.1838 18.0992Z" fill="url(#paint1_linear_301_2)"/>
<path d="M22.2749 18.0623L19.0725 15.4653L9.61703 23.133C10.0595 23.4524 10.7198 23.4705 11.1879 23.1761L22.2749 18.0623Z" fill="url(#paint2_linear_301_2)"/>
<path d="M22.2749 12.8685L11.1879 7.76082C10.7226 7.46218 10.0601 7.47775 9.61703 7.79775L19.0725 15.4654L22.2749 12.8685Z" fill="url(#paint3_linear_301_2)"/>
<path opacity="0.2" d="M22.1838 18.0068L11.1879 23.0838C10.7387 23.3587 10.1193 23.3587 9.67016 23.0838L9.61703 23.1268L9.67016 23.1761C10.1193 23.451 10.7387 23.451 11.1879 23.1761L22.2749 18.0622L22.1838 18.0068Z" fill="black"/>
<path opacity="0.12" d="M9.61703 23.0469C9.37328 22.8028 9.25384 22.4924 9.28313 22.1792V22.2715C9.25725 22.5855 9.3855 22.8952 9.6398 23.133L9.69292 23.09L9.61703 23.0469Z" fill="black"/>
<path opacity="0.12" d="M25.9782 16.2653L22.1838 18.0069L22.2521 18.0623L25.9782 16.3515C26.4262 16.1979 26.7348 15.8579 26.7826 15.4653C26.6863 15.8205 26.3878 16.1175 25.9782 16.2653Z" fill="black"/>
<path opacity="0.25" d="M11.1886 7.84686L25.9789 14.6653C26.3885 14.8132 26.6871 15.1102 26.7833 15.4653C26.7355 15.0728 26.4269 14.7328 25.9789 14.5792L11.1886 7.7607C10.1338 7.2684 9.26108 7.67455 9.26108 8.65916V8.75147C9.28384 7.76686 10.1338 7.3607 11.1886 7.84686Z" fill="#91B1B8"/>
<path fill-rule="evenodd" clip-rule="evenodd" d="M33.0963 11.9392H33.6502V11.1576H37.1031V11.933H37.6646V10.7023H37.1562V7.46533H34.1207V9.31149C34.1977 9.82047 33.9952 10.3312 33.5667 10.7084H33.0963V11.9392ZM34.2725 10.7207C34.5882 10.297 34.7389 9.80582 34.705 9.31149V7.92072H36.5491V10.7207H34.2725Z" fill="#91B1B8"/>
<path d="M33.6502 11.9392V12.0007H33.7261V11.9392H33.6502ZM33.0962 11.9392H33.0204V12.0007H33.0962V11.9392ZM33.6502 11.1577V11.0961H33.5743V11.1577H33.6502ZM37.1031 11.1577H37.1789V11.0961H37.1031V11.1577ZM37.1031 11.933H37.0272V11.9946H37.1031V11.933ZM37.6646 11.933V11.9946H37.7405V11.933H37.6646ZM37.6646 10.7023H37.7405V10.6407H37.6646V10.7023ZM37.1562 10.7023H37.0803V10.7638H37.1562V10.7023ZM37.1562 7.46535H37.2321V7.40381H37.1562V7.46535ZM34.1207 7.46535V7.40381H34.0448V7.46535H34.1207ZM34.1207 9.3115H34.0442L34.0454 9.31901L34.1207 9.3115ZM33.5667 10.7084V10.77H33.6L33.6225 10.7501L33.5667 10.7084ZM33.0962 10.7084V10.6469H33.0204V10.7084H33.0962ZM34.705 9.3115H34.629L34.6292 9.31495L34.705 9.3115ZM34.2725 10.7207L34.2075 10.6889L34.138 10.7823H34.2725V10.7207ZM34.705 7.92073V7.85919H34.6292V7.92073H34.705ZM36.5491 7.92073H36.625V7.85919H36.5491V7.92073ZM36.5491 10.7207V10.7823H36.625V10.7207H36.5491ZM33.6502 11.8777H33.0962V12.0007H33.6502V11.8777ZM33.5743 11.1577V11.9392H33.7261V11.1577H33.5743ZM37.1031 11.0961H33.6502V11.2192H37.1031V11.0961ZM37.1789 11.933V11.1577H37.0272V11.933H37.1789ZM37.6646 11.8715H37.1031V11.9946H37.6646V11.8715ZM37.5887 10.7023V11.933H37.7405V10.7023H37.5887ZM37.1562 10.7638H37.6646V10.6407H37.1562V10.7638ZM37.0803 7.46535V10.7023H37.2321V7.46535H37.0803ZM34.1207 7.52689H37.1562V7.40381H34.1207V7.52689ZM34.1966 9.3115V7.46535H34.0448V9.3115H34.1966ZM33.6225 10.7501C34.0661 10.3597 34.2757 9.83095 34.196 9.30399L34.0454 9.31901C34.1197 9.81009 33.9242 10.3028 33.5109 10.6668L33.6225 10.7501ZM33.0962 10.77H33.5667V10.6469H33.0962V10.77ZM33.1721 11.9392V10.7084H33.0204V11.9392H33.1721ZM34.6292 9.31495C34.6623 9.79692 34.5153 10.2757 34.2075 10.6889L34.3374 10.7525C34.661 10.3182 34.8155 9.81476 34.7808 9.30812L34.6292 9.31495ZM34.6292 7.92073V9.3115H34.7809V7.92073H34.6292ZM36.5491 7.85919H34.705V7.98227H36.5491V7.85919ZM36.625 10.7207V7.92073H36.4732V10.7207H36.625ZM34.2725 10.7823H36.5491V10.6592H34.2725V10.7823Z" fill="#91B1B8"/>
<path fill-rule="evenodd" clip-rule="evenodd" d="M40.5597 11.2382C41.1847 11.2382 41.784 11.0365 42.2254 10.6776C42.6742 10.3179 42.9189 9.8231 42.9008 9.31147C42.9118 8.80095 42.6683 8.30833 42.2254 7.94532C41.784 7.58649 41.1847 7.38477 40.5597 7.38477C39.9346 7.38477 39.3353 7.58649 38.894 7.94532C37.992 8.70926 37.992 9.91375 38.894 10.6776C39.3353 11.0365 39.9346 11.2382 40.5597 11.2382ZM40.5559 10.7884C40.0899 10.7937 39.6421 10.6422 39.3189 10.3699C38.6507 9.76833 38.6507 8.85467 39.3189 8.25301C39.6421 7.98083 40.0899 7.82932 40.5559 7.83455C41.0223 7.8271 41.4712 7.97892 41.7928 8.25301C42.4717 8.85129 42.4717 9.77172 41.7928 10.3699C41.4712 10.6441 41.0223 10.7959 40.5559 10.7884Z" fill="#91B1B8"/>
<path d="M42.2254 10.6776L42.172 10.6339L42.1716 10.6342L42.2254 10.6776ZM42.9008 9.31149L42.8248 9.31044L42.8249 9.31327L42.9008 9.31149ZM42.2254 7.94533L42.2793 7.90207L42.2791 7.90189L42.2254 7.94533ZM38.894 7.94533L38.8402 7.90189L38.8391 7.90281L38.894 7.94533ZM38.894 10.6776L38.8391 10.7202L38.8402 10.7211L38.894 10.6776ZM39.3189 10.3699L39.2625 10.4112L39.2642 10.4127L39.3189 10.3699ZM40.5559 10.7884L40.5574 10.7269L40.5548 10.7269L40.5559 10.7884ZM39.3189 8.25303L39.2642 8.21032L39.2625 8.21186L39.3189 8.25303ZM40.5559 7.83457L40.5548 7.89617L40.5574 7.8961L40.5559 7.83457ZM41.7928 8.25303L41.8487 8.21137L41.8478 8.21063L41.7928 8.25303ZM41.7928 10.3699L41.8478 10.4124L41.8487 10.4117L41.7928 10.3699ZM42.1716 10.6342C41.7445 10.9815 41.1645 11.1767 40.5597 11.1767V11.2998C41.2049 11.2998 41.8235 11.0916 42.2791 10.7211L42.1716 10.6342ZM42.8249 9.31327C42.8424 9.80786 42.6059 10.2861 42.172 10.6339L42.2787 10.7215C42.7426 10.3497 42.9953 9.83844 42.9766 9.30976L42.8249 9.31327ZM42.1714 7.98866C42.5999 8.33986 42.8355 8.81647 42.8249 9.31044L42.9767 9.3126C42.988 8.78546 42.7366 8.2769 42.2793 7.90207L42.1714 7.98866ZM40.5597 7.44632C41.1645 7.44632 41.7445 7.64152 42.1716 7.98884L42.2791 7.90189C41.8235 7.53143 41.2049 7.32324 40.5597 7.32324V7.44632ZM38.9477 7.98884C39.3748 7.64152 39.9548 7.44632 40.5597 7.44632V7.32324C39.9145 7.32324 39.2958 7.53143 38.8402 7.90189L38.9477 7.98884ZM38.9487 10.6351C38.0748 9.895 38.0748 8.72804 38.9487 7.98792L38.8391 7.90281C37.909 8.6905 37.909 9.93253 38.8391 10.7202L38.9487 10.6351ZM40.5597 11.1767C39.9548 11.1767 39.3748 10.9815 38.9477 10.6342L38.8402 10.7211C39.2958 11.0916 39.9145 11.2998 40.5597 11.2998V11.1767ZM39.2642 10.4127C39.602 10.6971 40.07 10.8554 40.5569 10.8499L40.5548 10.7269C40.1098 10.7319 39.6822 10.5872 39.3736 10.3273L39.2642 10.4127ZM39.2625 8.21186C38.5682 8.8369 38.5682 9.78613 39.2625 10.4112L39.3753 10.3288C38.7331 9.75056 38.7331 8.87241 39.3753 8.29426L39.2625 8.21186ZM40.5569 7.77309C40.07 7.76761 39.602 7.92589 39.2642 8.21038L39.3736 8.29573C39.6822 8.0358 40.1098 7.89112 40.5548 7.8961L40.5569 7.77309ZM41.8478 8.21063C41.5115 7.92404 41.0422 7.76521 40.5544 7.77309L40.5574 7.8961C41.0025 7.88896 41.4309 8.03389 41.7378 8.29549L41.8478 8.21063ZM41.8487 10.4117C42.5543 9.78983 42.5543 8.83321 41.8487 8.21137L41.737 8.29475C42.3891 8.8694 42.3891 9.75358 41.737 10.3283L41.8487 10.4117ZM40.5544 10.8499C41.0422 10.8578 41.5115 10.699 41.8478 10.4124L41.7378 10.3275C41.4309 10.5891 41.0025 10.7341 40.5574 10.7269L40.5544 10.8499Z" fill="#91B1B8"/>
<path d="M45.8453 11.2377C45.2249 11.2457 44.6274 11.0478 44.191 10.69C43.2813 9.91913 43.2813 8.70405 44.191 7.9331C44.6347 7.5691 45.2448 7.3707 45.8757 7.38541C46.5195 7.37064 47.1356 7.59778 47.5452 8.00079L47.143 8.32079C46.8405 8.00541 46.3679 7.82873 45.8757 7.84695C45.4036 7.83722 44.9475 7.98645 44.616 8.25925C43.9386 8.86276 43.9386 9.78504 44.616 10.3885C44.9475 10.6613 45.4036 10.8106 45.8757 10.8008C46.4035 10.7887 46.8978 10.5882 47.2265 10.2531L47.6362 10.5793C47.4284 10.7813 47.1697 10.945 46.8774 11.0593C46.5546 11.1816 46.2016 11.2426 45.8453 11.2377Z" fill="#91B1B8" stroke="#91B1B8" stroke-width="0.2"/>
<path d="M50.019 11.1576H49.4347V7.92072H48.1598V7.46533H51.2863V7.92072H50.019V11.1576Z" fill="#91B1B8" stroke="#91B1B8" stroke-width="0.2"/>
<path d="M55.3084 7.46533L53.5857 10.5792C53.5012 10.8319 53.2841 11.0417 52.9919 11.1531C52.6997 11.2644 52.3619 11.2661 52.068 11.1576L52.2198 10.7207C52.3127 10.7631 52.4169 10.7863 52.5233 10.7884C52.6356 10.793 52.747 10.7693 52.8421 10.7207C52.9343 10.6585 53.0049 10.5779 53.0469 10.4869L53.2139 10.1915L51.6962 7.46533H52.3867L53.5099 9.58226L54.6178 7.46533H55.3084Z" fill="#91B1B8" stroke="#91B1B8" stroke-width="0.2"/>
<path d="M55.9685 11.1576V7.46533H59.262V11.1576H58.6776V7.92072H56.5528V11.1576H55.9685Z" fill="#91B1B8" stroke="#91B1B8" stroke-width="0.2"/>
<path d="M60.3016 11.1576V7.46533H60.886V9.04687H63.1626V7.46533H63.7545V11.1576H63.1626V9.48995H60.886V11.1576H60.3016Z" fill="#91B1B8" stroke="#91B1B8" stroke-width="0.2"/>
<path fill-rule="evenodd" clip-rule="evenodd" d="M66.8506 11.2387C67.4769 11.2387 68.0775 11.0369 68.5201 10.6776H68.5125C69.4069 9.91123 69.4069 8.71178 68.5125 7.94532C68.0712 7.58649 67.4718 7.38477 66.8468 7.38477C66.2218 7.38477 65.6225 7.58649 65.1811 7.94532C64.2791 8.70926 64.2791 9.91375 65.1811 10.6776C65.6238 11.0369 66.2243 11.2387 66.8506 11.2387ZM66.8506 10.7884C66.3842 10.7959 65.9353 10.6441 65.6137 10.3699C64.9348 9.77172 64.9348 8.85129 65.6137 8.25301C65.9353 7.97892 66.3842 7.8271 66.8506 7.83455C67.3166 7.82932 67.7644 7.98083 68.0876 8.25301C68.7558 8.85467 68.7558 9.76833 68.0876 10.3699C67.7644 10.6422 67.3166 10.7937 66.8506 10.7884Z" fill="#91B1B8"/>
<path d="M68.5201 10.6776L68.5738 10.7211L68.7033 10.6161H68.5201V10.6776ZM68.5126 10.6776L68.4575 10.6354L68.3363 10.7392H68.5126V10.6776ZM68.5126 7.94533L68.5677 7.90306L68.5663 7.90189L68.5126 7.94533ZM65.1811 7.94533L65.1274 7.90189L65.1264 7.90281L65.1811 7.94533ZM65.1811 10.6776L65.1264 10.7202L65.1275 10.7211L65.1811 10.6776ZM65.6137 10.3699L65.5578 10.4117L65.5588 10.4124L65.6137 10.3699ZM66.8506 10.7884L66.8517 10.7269L66.8491 10.7269L66.8506 10.7884ZM65.6137 8.25303L65.5588 8.21063L65.5578 8.21137L65.6137 8.25303ZM66.8506 7.83457L66.8491 7.89617L66.8517 7.8961L66.8506 7.83457ZM68.0876 8.25303L68.1441 8.21186L68.1422 8.21038L68.0876 8.25303ZM68.0876 10.3699L68.1423 10.4127L68.144 10.4112L68.0876 10.3699ZM68.4665 10.6342C68.038 10.9819 67.4568 11.1772 66.8506 11.1772V11.3003C67.497 11.3003 68.117 11.092 68.5738 10.7211L68.4665 10.6342ZM68.5126 10.7392H68.5201V10.6161H68.5126V10.7392ZM68.4575 7.98767C69.324 8.73032 69.324 9.89272 68.4575 10.6354L68.5677 10.72C69.4897 9.92983 69.4898 8.69321 68.5677 7.90306L68.4575 7.98767ZM66.8468 7.44632C67.4517 7.44632 68.0317 7.64152 68.4588 7.98884L68.5663 7.90189C68.1107 7.53143 67.492 7.32324 66.8468 7.32324V7.44632ZM65.2349 7.98884C65.662 7.64152 66.242 7.44632 66.8468 7.44632V7.32324C66.2017 7.32324 65.583 7.53143 65.1274 7.90189L65.2349 7.98884ZM65.2359 10.6351C64.3621 9.895 64.3621 8.72804 65.2359 7.98792L65.1264 7.90281C64.1963 8.6905 64.1963 9.93253 65.1264 10.7202L65.2359 10.6351ZM66.8506 11.1772C66.2445 11.1772 65.6632 10.9819 65.2348 10.6342L65.1275 10.7211C65.5843 11.092 66.2042 11.3003 66.8506 11.3003V11.1772ZM65.5588 10.4124C65.895 10.699 66.3644 10.8578 66.8522 10.8499L66.8491 10.7269C66.404 10.7341 65.9756 10.5891 65.6687 10.3275L65.5588 10.4124ZM65.5578 8.21137C64.8522 8.83321 64.8522 9.78983 65.5578 10.4117L65.6695 10.3283C65.0174 9.75358 65.0174 8.8694 65.6695 8.29475L65.5578 8.21137ZM66.8522 7.77309C66.3644 7.76521 65.895 7.92404 65.5588 8.21063L65.6687 8.29549C65.9756 8.03389 66.404 7.88903 66.8491 7.89617L66.8522 7.77309ZM68.1422 8.21038C67.8045 7.92589 67.3365 7.76761 66.8496 7.77309L66.8517 7.8961C67.2966 7.89112 67.7243 8.0358 68.033 8.29573L68.1422 8.21038ZM68.144 10.4112C68.8382 9.78613 68.8383 8.8369 68.1441 8.21186L68.0312 8.29426C68.6734 8.87241 68.6734 9.75056 68.0312 10.3288L68.144 10.4112ZM66.8496 10.8499C67.3365 10.8554 67.8046 10.6971 68.1423 10.4127L68.033 10.3273C67.7243 10.5872 67.2966 10.7319 66.8517 10.7269L66.8496 10.8499Z" fill="#91B1B8"/>
<path fill-rule="evenodd" clip-rule="evenodd" d="M71.5783 11.1577V7.46539H73.225C73.5664 7.46256 73.8967 7.56354 74.1509 7.74847C74.4075 7.92908 74.5521 8.19284 74.5455 8.46847C74.5473 8.63419 74.4892 8.79677 74.3785 8.93616C74.2664 9.06828 74.1115 9.17265 73.9308 9.2377C74.1498 9.29844 74.3423 9.40964 74.4848 9.5577C74.6242 9.70847 74.6988 9.89222 74.6972 10.0808C74.7051 10.368 74.5549 10.6431 74.2874 10.8315C74.024 11.0303 73.6758 11.1384 73.3161 11.1331L71.5783 11.1577ZM72.1626 9.04693H73.225C73.4264 9.05634 73.6221 8.99062 73.7562 8.86847C73.8849 8.76619 73.9586 8.62681 73.9611 8.48077C73.9683 8.33419 73.9058 8.19099 73.7866 8.08077C73.6574 7.96453 73.4708 7.90133 73.2782 7.90847H72.1854L72.1626 9.04693ZM73.3465 10.7023H72.1626V9.49001H73.3161C73.5305 9.48545 73.7373 9.55481 73.8853 9.68077C74.0172 9.79173 74.0931 9.93887 74.0977 10.0931C74.097 10.2485 74.0238 10.398 73.8928 10.5115C73.7549 10.638 73.5545 10.708 73.3465 10.7023Z" fill="#91B1B8"/>
<path d="M71.5783 7.46541V7.40387H71.5024V7.46541H71.5783ZM71.5783 11.1577H71.5024V11.2203L71.5796 11.2192L71.5783 11.1577ZM73.225 7.46541V7.52695H73.2258L73.225 7.46541ZM74.1509 7.74848L74.1002 7.79427L74.1011 7.79495L74.1509 7.74848ZM74.5455 8.46848L74.4695 8.46725L74.4696 8.46904L74.5455 8.46848ZM74.3785 8.93618L74.441 8.97101L74.4423 8.96947L74.3785 8.93618ZM73.9308 9.23771L73.9 9.18147L73.723 9.2451L73.9062 9.29593L73.9308 9.23771ZM74.4848 9.55771L74.5455 9.52073L74.5446 9.51987L74.4848 9.55771ZM74.6972 10.0808L74.6213 10.0803L74.6214 10.0821L74.6972 10.0808ZM74.2875 10.8316L74.2376 10.785L74.2357 10.7865L74.2875 10.8316ZM73.3161 11.1331L73.3175 11.0715L73.3147 11.0716L73.3161 11.1331ZM73.225 9.04695L73.2294 8.98541H73.225V9.04695ZM72.1626 9.04695L72.0867 9.0459L72.0854 9.10848H72.1626V9.04695ZM73.7562 8.86848L73.703 8.82442L73.6996 8.82756L73.7562 8.86848ZM73.9611 8.48079L73.8853 8.47833V8.47987L73.9611 8.48079ZM73.7866 8.08079L73.8437 8.04018L73.8429 8.03956L73.7866 8.08079ZM73.2782 7.90848V7.97008L73.2816 7.96996L73.2782 7.90848ZM72.1854 7.90848V7.84695H72.1107L72.1095 7.90744L72.1854 7.90848ZM72.1626 10.7023H72.0867V10.7639H72.1626V10.7023ZM73.3465 10.7023L73.349 10.6408H73.3465V10.7023ZM72.1626 9.49002V9.42848H72.0867V9.49002H72.1626ZM73.3161 9.49002V9.55156L73.318 9.5515L73.3161 9.49002ZM73.8853 9.68079L73.8302 9.72319L73.8306 9.7235L73.8853 9.68079ZM74.0977 10.0931L74.1736 10.0933L74.1735 10.0916L74.0977 10.0931ZM73.8928 10.5116L73.8374 10.4695L73.8359 10.4708L73.8928 10.5116ZM71.5024 7.46541V11.1577H71.6542V7.46541H71.5024ZM73.225 7.40387H71.5783V7.52695H73.225V7.40387ZM74.2015 7.70264C73.9332 7.5075 73.5846 7.40091 73.2243 7.40387L73.2258 7.52695C73.5482 7.5243 73.8601 7.61968 74.1002 7.79427L74.2015 7.70264ZM74.6213 8.46965C74.6284 8.17581 74.4743 7.89458 74.2006 7.70196L74.1011 7.79495C74.3408 7.96362 74.4758 8.2099 74.4696 8.46725L74.6213 8.46965ZM74.4423 8.96947C74.561 8.82005 74.6233 8.64571 74.6213 8.46793L74.4696 8.46904C74.4712 8.62276 74.4174 8.77359 74.3147 8.90282L74.4423 8.96947ZM73.9615 9.29396C74.1551 9.2243 74.3211 9.11248 74.441 8.97101L74.316 8.90128C74.2119 9.02405 74.0679 9.12104 73.9 9.18147L73.9615 9.29396ZM74.5446 9.51987C74.3931 9.36233 74.1883 9.24405 73.9553 9.17944L73.9062 9.29593C74.1113 9.35279 74.2915 9.45691 74.4249 9.59556L74.5446 9.51987ZM74.7731 10.0812C74.7749 9.87919 74.6949 9.68233 74.5455 9.52079L74.424 9.59464C74.5535 9.73464 74.6229 9.90528 74.6214 10.0803L74.7731 10.0812ZM74.3372 10.878C74.6217 10.6776 74.7814 10.3849 74.773 10.0794L74.6214 10.0821C74.6287 10.3511 74.4881 10.6087 74.2377 10.7851L74.3372 10.878ZM73.3147 11.1946C73.6941 11.2002 74.0613 11.0862 74.3391 10.8766L74.2357 10.7865C73.9867 10.9744 73.6575 11.0765 73.3175 11.0716L73.3147 11.1946ZM71.5796 11.2192L73.3174 11.1946L73.3147 11.0716L71.5769 11.0962L71.5796 11.2192ZM73.225 8.98541H72.1626V9.10848H73.225V8.98541ZM73.6996 8.82756C73.5808 8.93568 73.4076 8.99384 73.2294 8.98547L73.2206 9.10836C73.4452 9.11888 73.6633 9.04559 73.8129 8.90941L73.6996 8.82756ZM73.8853 8.47987C73.883 8.60971 73.8175 8.73359 73.7031 8.82448L73.8093 8.91242C73.9523 8.79876 74.0341 8.64393 74.0369 8.48165L73.8853 8.47987ZM73.7295 8.12135C73.8359 8.21975 73.8917 8.34756 73.8853 8.47833L74.0369 8.48319C74.0448 8.32091 73.9757 8.16233 73.8436 8.04018L73.7295 8.12135ZM73.2816 7.96996C73.4516 7.96368 73.6162 8.01944 73.7302 8.12196L73.8429 8.03956C73.6986 7.90971 73.4901 7.83901 73.2747 7.84701L73.2816 7.96996ZM72.1854 7.97002H73.2782V7.84695H72.1854V7.97002ZM72.2384 9.04793L72.2612 7.90947L72.1095 7.90744L72.0867 9.0459L72.2384 9.04793ZM72.1626 10.7639H73.3465V10.6408H72.1626V10.7639ZM72.0867 9.49002V10.7023H72.2385V9.49002H72.0867ZM73.3161 9.42848H72.1626V9.55156H73.3161V9.42848ZM73.9402 9.63833C73.7774 9.49975 73.55 9.4235 73.3141 9.42848L73.318 9.5515C73.5111 9.54744 73.6971 9.60984 73.8302 9.72319L73.9402 9.63833ZM74.1735 10.0916C74.1685 9.92196 74.0851 9.76011 73.9398 9.63802L73.8306 9.7235C73.9495 9.82338 74.0177 9.95581 74.0218 10.0946L74.1735 10.0916ZM73.9482 10.5536C74.0923 10.4287 74.1729 10.2643 74.1736 10.0933L74.0218 10.0929C74.0212 10.2328 73.9554 10.3673 73.8374 10.4695L73.9482 10.5536ZM73.3439 10.7638C73.5746 10.7701 73.7967 10.6925 73.9497 10.5523L73.8359 10.4708C73.713 10.5835 73.5344 10.6458 73.349 10.6408L73.3439 10.7638Z" fill="#91B1B8"/>
<rect x="0.5" y="0.5" width="106" height="31" rx="4.5" stroke="#91B1B8"/>
<defs>
<linearGradient id="paint0_linear_301_2" x1="14.953" y1="-1.48968" x2="0.397947" y2="3.2879" gradientUnits="userSpaceOnUse">
<stop stop-color="#00A0FF"/>
<stop offset="0.01" stop-color="#00A1FF"/>
<stop offset="0.26" stop-color="#00BEFF"/>
<stop offset="0.51" stop-color="#00D2FF"/>
<stop offset="0.76" stop-color="#00DFFF"/>
<stop offset="1" stop-color="#00E3FF"/>
</linearGradient>
<linearGradient id="paint1_linear_301_2" x1="27.3668" y1="9.18822" x2="9.00987" y2="9.18822" gradientUnits="userSpaceOnUse">
<stop stop-color="#FFE000"/>
<stop offset="0.41" stop-color="#FFBD00"/>
<stop offset="0.78" stop-color="#FFA500"/>
<stop offset="1" stop-color="#FF9C00"/>
</linearGradient>
<linearGradient id="paint2_linear_301_2" x1="9.34953" y1="11.4773" x2="0.599735" y2="29.5933" gradientUnits="userSpaceOnUse">
<stop stop-color="#FF3A44"/>
<stop offset="1" stop-color="#C31162"/>
</linearGradient>
<linearGradient id="paint3_linear_301_2" x1="2.23698" y1="5.68013" x2="6.14084" y2="13.7693" gradientUnits="userSpaceOnUse">
<stop stop-color="#32A071"/>
<stop offset="0.07" stop-color="#2DA771"/>
<stop offset="0.48" stop-color="#15CF74"/>
<stop offset="0.8" stop-color="#06E775"/>
<stop offset="1" stop-color="#00F076"/>
</linearGradient>
</defs>
</svg>
